<?xml version="1.0" encoding="UTF-8"?>
<!DOCTYPE svg PUBLIC "-//W3C//DTD SVG 1.1//EN" "http://www.w3.org/Graphics/SVG/1.1/DTD/svg11.dtd">
<!-- Creator: CorelDRAW 2019 (64-Bit) -->
<svg xmlns="http://www.w3.org/2000/svg" xml:space="preserve" width="8.26772in" height="11.6929in" version="1.1" style="shape-rendering:geometricPrecision; text-rendering:geometricPrecision; image-rendering:optimizeQuality; fill-rule:evenodd; clip-rule:evenodd"
viewBox="0 0 8267.72 11692.91"
 xmlns:xlink="http://www.w3.org/1999/xlink"
 xmlns:xodm="http://www.corel.com/coreldraw/odm/2003">
 <defs>
  <style type="text/css">
   <![CDATA[
    .str0 {stroke:#CCD8E8;stroke-width:6.94;stroke-miterlimit:2.61313}
    .fil0 {fill:#CCD8E8}
   ]]>
  </style>
 </defs>
 <g id="Layer_x0020_1">
  <metadata id="CorelCorpID_0Corel-Layer"/>
  <path class="fil0 str0" d="M3059.85 1821.57c-175.51,-166.02 -172.64,-399.43 -24.38,-583.48 172.01,-213.55 277.14,-173.71 523.41,-173.71l1996.35 0c1942.5,215.17 2643.59,3253.7 0,3825.31l-669.73 0c-180.99,0 -268.82,20.91 -429.82,-82.7 -266.3,-171.37 -276.58,-480.57 -30.87,-676.72 168.52,-134.52 249.05,-116.41 447.81,-116.41l373.52 0c301.88,0 374.19,10.65 645.73,-159.44 751.31,-470.61 662.28,-1380.07 -78.39,-1788.96 -240.69,-132.87 -304.35,-112.37 -567.34,-112.37l-1725.9 0c-202.88,0 -298.02,22.1 -460.39,-131.52z"/>
  <path class="fil0 str0" d="M3700.53 5701.12c-54.67,503.06 -619.26,549.12 -810.07,166.77 -73.21,-146.69 -52.87,-290.17 -52.87,-450.11l0 -1275.11c0,-256.99 9.57,-398.66 107.48,-647.32 163.77,-415.85 467.23,-692.05 887.35,-851.55 266.57,-101.2 376.21,-85.36 653.81,-85.36l566.72 0c213.26,0 349.36,-30.02 525.35,119.15 268.23,227.36 205.91,639.7 -229.13,730.93l-837.18 0c-225.35,0 -259.06,-17.75 -457.09,113.04 -84.91,56.07 -154.75,118.61 -210.83,187.04 -147.6,180.08 -143.53,258.74 -143.53,472.74l0 1519.79z"/>
 </g>
</svg>
