<svg width="30" height="30" viewBox="0 0 30 30" fill="none" xmlns="http://www.w3.org/2000/svg">
<path d="M11.6667 5V8.33333H3.33333V26.6667H21.6667V18.3333H25V28.3333C25 28.7754 24.8244 29.1993 24.5118 29.5118C24.1993 29.8244 23.7754 30 23.3333 30H1.66667C1.22464 30 0.800716 29.8244 0.488155 29.5118C0.175595 29.1993 0 28.7754 0 28.3333V6.66667C0 6.22464 0.175595 5.80072 0.488155 5.48816C0.800716 5.17559 1.22464 5 1.66667 5H11.6667ZM30 0V15L23.6767 8.67833L13.6783 18.6783L11.3217 16.3217L21.32 6.32167L15 0H30Z" fill="white"/>
</svg>
