<svg width="22" height="22" viewBox="0 0 22 22" fill="none" xmlns="http://www.w3.org/2000/svg">
<path d="M12.7299 2.50989L14.4899 6.02989C14.7299 6.51989 15.3699 6.98989 15.9099 7.07989L19.0999 7.60989C21.1399 7.94989 21.6199 9.42989 20.1499 10.8899L17.6699 13.3699C17.2499 13.7899 17.0199 14.5999 17.1499 15.1799L17.8599 18.2499C18.4199 20.6799 17.1299 21.6199 14.9799 20.3499L11.9899 18.5799C11.4499 18.2599 10.5599 18.2599 10.0099 18.5799L7.01991 20.3499C4.87991 21.6199 3.57991 20.6699 4.13991 18.2499L4.84991 15.1799C4.97991 14.5999 4.74991 13.7899 4.32991 13.3699L1.84991 10.8899C0.389909 9.42989 0.859909 7.94989 2.89991 7.60989L6.08991 7.07989C6.61991 6.98989 7.25991 6.51989 7.49991 6.02989L9.25991 2.50989C10.2199 0.599893 11.7799 0.599893 12.7299 2.50989Z" stroke="#14191F" stroke-width="1.5" stroke-linecap="round" stroke-linejoin="round"/>
</svg>
