<svg width="118" height="130" viewBox="0 0 118 130" fill="none" xmlns="http://www.w3.org/2000/svg">
<path d="M117.5 45.5V123.454C117.506 124.308 117.344 125.155 117.023 125.945C116.702 126.736 116.228 127.456 115.628 128.064C115.029 128.672 114.316 129.156 113.53 129.488C112.743 129.82 111.899 129.994 111.046 130H6.9545C5.24379 130 3.60304 129.321 2.39278 128.112C1.18251 126.903 0.501723 125.263 0.5 123.552V6.448C0.5 2.9575 3.4055 0 6.987 0H72V39C72 40.7239 72.6848 42.3772 73.9038 43.5962C75.1228 44.8152 76.7761 45.5 78.5 45.5H117.5ZM117.5 32.5H85V0.0195001L117.5 32.5Z" fill="#023E8A"/>
</svg>
